<svg width="190" height="190" viewBox="0 0 190 190" fill="none" xmlns="http://www.w3.org/2000/svg">
<path d="M19 0H0V87.4H87.4V0H70.0089L44.5044 44.175L19 0Z" fill="url(#paint0_linear_303_300)"/>
<path d="M102.6 43.7C102.6 19.5652 122.165 0 146.3 0C170.435 0 190 19.5652 190 43.7C190 67.8348 170.435 87.4 146.3 87.4C122.165 87.4 102.6 67.8348 102.6 43.7Z" fill="url(#paint1_linear_303_300)"/>
<path d="M87.4 121.6V102.6H0V190H87.4V172.609L43.225 147.104L87.4 121.6Z" fill="url(#paint2_linear_303_300)"/>
<path d="M102.6 102.6H190V190H102.6V102.6Z" fill="url(#paint3_linear_303_300)"/>
<defs>
<linearGradient id="paint0_linear_303_300" x1="0" y1="0" x2="190" y2="190" gradientUnits="userSpaceOnUse">
<stop stop-color="#25C4FF"/>
<stop offset="1" stop-color="#AE7FFF"/>
</linearGradient>
<linearGradient id="paint1_linear_303_300" x1="0" y1="0" x2="190" y2="190" gradientUnits="userSpaceOnUse">
<stop stop-color="#25C4FF"/>
<stop offset="1" stop-color="#AE7FFF"/>
</linearGradient>
<linearGradient id="paint2_linear_303_300" x1="0" y1="0" x2="190" y2="190" gradientUnits="userSpaceOnUse">
<stop stop-color="#25C4FF"/>
<stop offset="1" stop-color="#AE7FFF"/>
</linearGradient>
<linearGradient id="paint3_linear_303_300" x1="0" y1="0" x2="190" y2="190" gradientUnits="userSpaceOnUse">
<stop stop-color="#25C4FF"/>
<stop offset="1" stop-color="#AE7FFF"/>
</linearGradient>
</defs>
</svg>
